<svg xmlns="http://www.w3.org/2000/svg" xmlns:xlink="http://www.w3.org/1999/xlink" width="350" zoomAndPan="magnify" viewBox="0 0 262.5 524.999985" height="700" preserveAspectRatio="xMidYMid meet" version="1.0"><defs><clipPath id="6d99a860e9"><path d="M 3 2.570312 L 179 2.570312 L 179 27 L 3 27 Z M 3 2.570312 " clip-rule="nonzero"/></clipPath><clipPath id="2db474010e"><path d="M 3.074219 2.570312 L 172.234375 2.570312 C 175.738281 2.570312 178.578125 5.410156 178.578125 8.910156 L 178.578125 20.617188 C 178.578125 24.117188 175.738281 26.957031 172.234375 26.957031 L 3.074219 26.957031 L 3.074219 2.570312 " clip-rule="nonzero"/></clipPath><clipPath id="e1316e0265"><path d="M 3 114 L 69.277344 114 L 69.277344 138.554688 L 3 138.554688 Z M 3 114 " clip-rule="nonzero"/></clipPath><clipPath id="4542d4ebfb"><path d="M 3.074219 114.054688 L 62.808594 114.054688 C 66.3125 114.054688 69.148438 116.894531 69.148438 120.398438 L 69.148438 132.101562 C 69.148438 135.605469 66.3125 138.445312 62.808594 138.445312 L 3.074219 138.445312 L 3.074219 114.054688 " clip-rule="nonzero"/></clipPath><clipPath id="bb10ac9409"><path d="M 3 225.367188 L 20.878906 225.367188 L 20.878906 249.953125 L 3 249.953125 Z M 3 225.367188 " clip-rule="nonzero"/></clipPath><clipPath id="98516a78f5"><path d="M 3.074219 225.542969 L 13.78125 225.542969 C 17.28125 225.542969 20.121094 228.378906 20.121094 231.882812 L 20.121094 243.589844 C 20.121094 247.089844 17.28125 249.929688 13.78125 249.929688 L 3.074219 249.929688 L 3.074219 225.542969 " clip-rule="nonzero"/></clipPath><clipPath id="2d8f36c363"><path d="M 3 337 L 60.828125 337 L 60.828125 362 L 3 362 Z M 3 337 " clip-rule="nonzero"/></clipPath><clipPath id="5e3a42082f"><path d="M 3.074219 337.027344 L 54.386719 337.027344 C 57.890625 337.027344 60.726562 339.867188 60.726562 343.371094 L 60.726562 355.074219 C 60.726562 358.578125 57.890625 361.417969 54.386719 361.417969 L 3.074219 361.417969 L 3.074219 337.027344 " clip-rule="nonzero"/></clipPath><clipPath id="00dd433e4c"><path d="M 3 448.164062 L 32.402344 448.164062 L 32.402344 473 L 3 473 Z M 3 448.164062 " clip-rule="nonzero"/></clipPath><clipPath id="9b221e94ec"><path d="M 3.074219 448.515625 L 25.753906 448.515625 C 29.253906 448.515625 32.09375 451.351562 32.09375 454.855469 L 32.09375 466.5625 C 32.09375 470.0625 29.253906 472.902344 25.753906 472.902344 L 3.074219 472.902344 L 3.074219 448.515625 " clip-rule="nonzero"/></clipPath><clipPath id="3dacd51fed"><path d="M 3 28 L 204 28 L 204 53 L 3 53 Z M 3 28 " clip-rule="nonzero"/></clipPath><clipPath id="7393f1b311"><path d="M 3.074219 28.496094 L 197.546875 28.496094 C 201.050781 28.496094 203.890625 31.332031 203.890625 34.835938 L 203.890625 46.542969 C 203.890625 50.042969 201.050781 52.882812 197.546875 52.882812 L 3.074219 52.882812 L 3.074219 28.496094 " clip-rule="nonzero"/></clipPath><clipPath id="df5c4623fb"><path d="M 3 139.320312 L 57.753906 139.320312 L 57.753906 164.675781 L 3 164.675781 Z M 3 139.320312 " clip-rule="nonzero"/></clipPath><clipPath id="6ccf38ec91"><path d="M 3.074219 139.980469 L 50.949219 139.980469 C 54.453125 139.980469 57.289062 142.820312 57.289062 146.320312 L 57.289062 158.027344 C 57.289062 161.53125 54.453125 164.371094 50.949219 164.371094 L 3.074219 164.371094 L 3.074219 139.980469 " clip-rule="nonzero"/></clipPath><clipPath id="5082f13c02"><path d="M 3 251 L 27 251 L 27 276 L 3 276 Z M 3 251 " clip-rule="nonzero"/></clipPath><clipPath id="2c6304e025"><path d="M 3.074219 251.46875 L 20.597656 251.46875 C 24.101562 251.46875 26.9375 254.304688 26.9375 257.808594 L 26.9375 269.515625 C 26.9375 273.015625 24.101562 275.855469 20.597656 275.855469 L 3.074219 275.855469 L 3.074219 251.46875 " clip-rule="nonzero"/></clipPath><clipPath id="1055a7433e"><path d="M 3 362.886719 L 46 362.886719 L 46 387.472656 L 3 387.472656 Z M 3 362.886719 " clip-rule="nonzero"/></clipPath><clipPath id="904efb8b54"><path d="M 3.074219 362.953125 L 39.125 362.953125 C 42.628906 362.953125 45.46875 365.792969 45.46875 369.292969 L 45.46875 381 C 45.46875 384.503906 42.628906 387.34375 39.125 387.34375 L 3.074219 387.34375 L 3.074219 362.953125 " clip-rule="nonzero"/></clipPath><clipPath id="ce924dc03b"><path d="M 3 474.289062 L 23.949219 474.289062 L 23.949219 498.871094 L 3 498.871094 Z M 3 474.289062 " clip-rule="nonzero"/></clipPath><clipPath id="5a3e925153"><path d="M 3.074219 474.441406 L 17.21875 474.441406 C 20.71875 474.441406 23.558594 477.277344 23.558594 480.78125 L 23.558594 492.488281 C 23.558594 495.988281 20.71875 498.828125 17.21875 498.828125 L 3.074219 498.828125 L 3.074219 474.441406 " clip-rule="nonzero"/></clipPath><clipPath id="554a666315"><path d="M 3 54.042969 L 210.640625 54.042969 L 210.640625 79 L 3 79 Z M 3 54.042969 " clip-rule="nonzero"/></clipPath><clipPath id="93d058d7b3"><path d="M 3.074219 54.417969 L 204.300781 54.417969 C 207.800781 54.417969 210.640625 57.257812 210.640625 60.761719 L 210.640625 72.46875 C 210.640625 75.96875 207.800781 78.808594 204.300781 78.808594 L 3.074219 78.808594 L 3.074219 54.417969 " clip-rule="nonzero"/></clipPath><clipPath id="6c4cf58324"><path d="M 3 165.441406 L 50.839844 165.441406 L 50.839844 190.796875 L 3 190.796875 Z M 3 165.441406 " clip-rule="nonzero"/></clipPath><clipPath id="beb243f33b"><path d="M 3.074219 165.90625 L 44.171875 165.90625 C 47.675781 165.90625 50.511719 168.746094 50.511719 172.246094 L 50.511719 183.953125 C 50.511719 187.457031 47.675781 190.292969 44.171875 190.292969 L 3.074219 190.292969 L 3.074219 165.90625 " clip-rule="nonzero"/></clipPath><clipPath id="4c8c6be8c7"><path d="M 3 277 L 35.472656 277 L 35.472656 302 L 3 302 Z M 3 277 " clip-rule="nonzero"/></clipPath><clipPath id="63fa2f765a"><path d="M 3.074219 277.390625 L 29.121094 277.390625 C 32.625 277.390625 35.460938 280.230469 35.460938 283.734375 L 35.460938 295.441406 C 35.460938 298.941406 32.625 301.78125 29.121094 301.78125 L 3.074219 301.78125 L 3.074219 277.390625 " clip-rule="nonzero"/></clipPath><clipPath id="8de086ffc1"><path d="M 3 388.242188 L 33.9375 388.242188 L 33.9375 413.59375 L 3 413.59375 Z M 3 388.242188 " clip-rule="nonzero"/></clipPath><clipPath id="245f9d6fb5"><path d="M 3.074219 388.878906 L 27.257812 388.878906 C 30.757812 388.878906 33.597656 391.71875 33.597656 395.21875 L 33.597656 406.925781 C 33.597656 410.429688 30.757812 413.265625 27.257812 413.265625 L 3.074219 413.265625 L 3.074219 388.878906 " clip-rule="nonzero"/></clipPath><clipPath id="9d738d8991"><path d="M 3 500 L 25.488281 500 L 25.488281 524.5 L 3 524.5 Z M 3 500 " clip-rule="nonzero"/></clipPath><clipPath id="99480c1d3b"><path d="M 3.074219 500.363281 L 18.925781 500.363281 C 22.425781 500.363281 25.265625 503.203125 25.265625 506.707031 L 25.265625 518.414062 C 25.265625 521.914062 22.425781 524.753906 18.925781 524.753906 L 3.074219 524.753906 L 3.074219 500.363281 " clip-rule="nonzero"/></clipPath></defs><g clip-path="url(#6d99a860e9)"><g clip-path="url(#2db474010e)"><path fill="#000000" d="M 210.640625 2.570312 L 210.640625 524.992188 L 3.207031 524.992188 L 3.207031 2.570312 Z M 210.640625 2.570312 " fill-opacity="1" fill-rule="nonzero"/></g></g><g clip-path="url(#e1316e0265)"><g clip-path="url(#4542d4ebfb)"><path fill="#000000" d="M 210.640625 2.570312 L 210.640625 524.992188 L 3.207031 524.992188 L 3.207031 2.570312 Z M 210.640625 2.570312 " fill-opacity="1" fill-rule="nonzero"/></g></g><g clip-path="url(#bb10ac9409)"><g clip-path="url(#98516a78f5)"><path fill="#000000" d="M 210.640625 2.570312 L 210.640625 524.992188 L 3.207031 524.992188 L 3.207031 2.570312 Z M 210.640625 2.570312 " fill-opacity="1" fill-rule="nonzero"/></g></g><g clip-path="url(#2d8f36c363)"><g clip-path="url(#5e3a42082f)"><path fill="#000000" d="M 210.640625 2.570312 L 210.640625 524.992188 L 3.207031 524.992188 L 3.207031 2.570312 Z M 210.640625 2.570312 " fill-opacity="1" fill-rule="nonzero"/></g></g><g clip-path="url(#00dd433e4c)"><g clip-path="url(#9b221e94ec)"><path fill="#000000" d="M 210.640625 2.570312 L 210.640625 524.992188 L 3.207031 524.992188 L 3.207031 2.570312 Z M 210.640625 2.570312 " fill-opacity="1" fill-rule="nonzero"/></g></g><g clip-path="url(#3dacd51fed)"><g clip-path="url(#7393f1b311)"><path fill="#193d29" d="M 210.640625 2.570312 L 210.640625 524.992188 L 3.207031 524.992188 L 3.207031 2.570312 Z M 210.640625 2.570312 " fill-opacity="1" fill-rule="nonzero"/></g></g><g clip-path="url(#df5c4623fb)"><g clip-path="url(#6ccf38ec91)"><path fill="#193d29" d="M 210.640625 2.570312 L 210.640625 524.992188 L 3.207031 524.992188 L 3.207031 2.570312 Z M 210.640625 2.570312 " fill-opacity="1" fill-rule="nonzero"/></g></g><g clip-path="url(#5082f13c02)"><g clip-path="url(#2c6304e025)"><path fill="#193d29" d="M 210.640625 2.570312 L 210.640625 524.992188 L 3.207031 524.992188 L 3.207031 2.570312 Z M 210.640625 2.570312 " fill-opacity="1" fill-rule="nonzero"/></g></g><g clip-path="url(#1055a7433e)"><g clip-path="url(#904efb8b54)"><path fill="#193d29" d="M 210.640625 2.570312 L 210.640625 524.992188 L 3.207031 524.992188 L 3.207031 2.570312 Z M 210.640625 2.570312 " fill-opacity="1" fill-rule="nonzero"/></g></g><g clip-path="url(#ce924dc03b)"><g clip-path="url(#5a3e925153)"><path fill="#193d29" d="M 210.640625 2.570312 L 210.640625 524.992188 L 3.207031 524.992188 L 3.207031 2.570312 Z M 210.640625 2.570312 " fill-opacity="1" fill-rule="nonzero"/></g></g><g clip-path="url(#554a666315)"><g clip-path="url(#93d058d7b3)"><path fill="#9bbba5" d="M 210.640625 2.570312 L 210.640625 524.992188 L 3.207031 524.992188 L 3.207031 2.570312 Z M 210.640625 2.570312 " fill-opacity="1" fill-rule="nonzero"/></g></g><g clip-path="url(#6c4cf58324)"><g clip-path="url(#beb243f33b)"><path fill="#9bbba5" d="M 210.640625 2.570312 L 210.640625 524.992188 L 3.207031 524.992188 L 3.207031 2.570312 Z M 210.640625 2.570312 " fill-opacity="1" fill-rule="nonzero"/></g></g><g clip-path="url(#4c8c6be8c7)"><g clip-path="url(#63fa2f765a)"><path fill="#9bbba5" d="M 210.640625 2.570312 L 210.640625 524.992188 L 3.207031 524.992188 L 3.207031 2.570312 Z M 210.640625 2.570312 " fill-opacity="1" fill-rule="nonzero"/></g></g><g clip-path="url(#8de086ffc1)"><g clip-path="url(#245f9d6fb5)"><path fill="#9bbba5" d="M 210.640625 2.570312 L 210.640625 524.992188 L 3.207031 524.992188 L 3.207031 2.570312 Z M 210.640625 2.570312 " fill-opacity="1" fill-rule="nonzero"/></g></g><g clip-path="url(#9d738d8991)"><g clip-path="url(#99480c1d3b)"><path fill="#9bbba5" d="M 210.640625 2.570312 L 210.640625 524.992188 L 3.207031 524.992188 L 3.207031 2.570312 Z M 210.640625 2.570312 " fill-opacity="1" fill-rule="nonzero"/></g></g></svg>