<svg xmlns="http://www.w3.org/2000/svg" xmlns:xlink="http://www.w3.org/1999/xlink" width="800" zoomAndPan="magnify" viewBox="0 0 600 262.499992" height="350" preserveAspectRatio="xMidYMid meet" version="1.0"><defs><clipPath id="5622ee6fd5"><path d="M 19.703125 80 L 49.46875 80 L 49.46875 246.828125 L 19.703125 246.828125 Z M 19.703125 80 " clip-rule="nonzero"/></clipPath><clipPath id="2364a52c0e"><path d="M 19.703125 246.226562 L 19.703125 88.054688 C 19.703125 83.8125 23.140625 80.371094 27.386719 80.371094 L 41.570312 80.371094 C 45.8125 80.371094 49.253906 83.8125 49.253906 88.054688 L 49.253906 246.226562 L 19.703125 246.226562 " clip-rule="nonzero"/></clipPath><clipPath id="331ae0ba63"><path d="M 136 183.660156 L 166 183.660156 L 166 246.828125 L 136 246.828125 Z M 136 183.660156 " clip-rule="nonzero"/></clipPath><clipPath id="1727e34427"><path d="M 136.382812 246.226562 L 136.382812 191.464844 C 136.382812 187.222656 139.824219 183.78125 144.066406 183.78125 L 158.25 183.78125 C 162.496094 183.78125 165.933594 187.222656 165.933594 191.464844 L 165.933594 246.226562 L 136.382812 246.226562 " clip-rule="nonzero"/></clipPath><clipPath id="72b903e7d2"><path d="M 253 230 L 283 230 L 283 246.828125 L 253 246.828125 Z M 253 230 " clip-rule="nonzero"/></clipPath><clipPath id="819fbc369b"><path d="M 253.066406 246.226562 L 253.066406 237.800781 C 253.066406 235.761719 253.875 233.808594 255.316406 232.367188 C 256.757812 230.925781 258.710938 230.117188 260.75 230.117188 L 274.933594 230.117188 C 276.972656 230.117188 278.925781 230.925781 280.367188 232.367188 C 281.808594 233.808594 282.617188 235.761719 282.617188 237.800781 L 282.617188 246.226562 L 253.066406 246.226562 " clip-rule="nonzero"/></clipPath><clipPath id="24e523bd4e"><path d="M 369.65625 191.648438 L 399.421875 191.648438 L 399.421875 246.828125 L 369.65625 246.828125 Z M 369.65625 191.648438 " clip-rule="nonzero"/></clipPath><clipPath id="3cf72cda52"><path d="M 369.746094 246.226562 L 369.746094 199.425781 C 369.746094 197.386719 370.554688 195.433594 371.996094 193.992188 C 373.4375 192.550781 375.390625 191.742188 377.429688 191.742188 L 391.613281 191.742188 C 395.859375 191.742188 399.296875 195.183594 399.296875 199.425781 L 399.296875 246.226562 L 369.746094 246.226562 " clip-rule="nonzero"/></clipPath><clipPath id="9c9ee9eed5"><path d="M 486 218.511719 L 516 218.511719 L 516 246.828125 L 486 246.828125 Z M 486 218.511719 " clip-rule="nonzero"/></clipPath><clipPath id="45b7d24532"><path d="M 486.429688 246.226562 L 486.429688 226.484375 C 486.429688 222.242188 489.867188 218.804688 494.113281 218.804688 L 508.296875 218.804688 C 512.539062 218.804688 515.980469 222.242188 515.980469 226.484375 L 515.980469 246.226562 L 486.429688 246.226562 " clip-rule="nonzero"/></clipPath><clipPath id="a2e610c6fe"><path d="M 50.195312 56 L 80.691406 56 L 80.691406 246.828125 L 50.195312 246.828125 Z M 50.195312 56 " clip-rule="nonzero"/></clipPath><clipPath id="69121ea29d"><path d="M 50.707031 246.226562 L 50.707031 64.132812 C 50.707031 59.890625 54.144531 56.449219 58.390625 56.449219 L 72.574219 56.449219 C 76.816406 56.449219 80.257812 59.890625 80.257812 64.132812 L 80.257812 246.226562 L 50.707031 246.226562 " clip-rule="nonzero"/></clipPath><clipPath id="1a060f5480"><path d="M 167.089844 194.550781 L 197 194.550781 L 197 246.828125 L 167.089844 246.828125 Z M 167.089844 194.550781 " clip-rule="nonzero"/></clipPath><clipPath id="7178d0fef0"><path d="M 167.386719 246.226562 L 167.386719 202.675781 C 167.386719 200.636719 168.195312 198.683594 169.636719 197.242188 C 171.078125 195.800781 173.03125 194.992188 175.070312 194.992188 L 189.253906 194.992188 C 191.292969 194.992188 193.246094 195.800781 194.6875 197.242188 C 196.128906 198.683594 196.9375 200.636719 196.9375 202.675781 L 196.9375 246.226562 L 167.386719 246.226562 " clip-rule="nonzero"/></clipPath><clipPath id="5b74f63b13"><path d="M 284 223.59375 L 313.75 223.59375 L 313.75 246.828125 L 284 246.828125 Z M 284 223.59375 " clip-rule="nonzero"/></clipPath><clipPath id="1a31f6f432"><path d="M 284.070312 246.226562 L 284.070312 231.355469 C 284.070312 229.320312 284.878906 227.363281 286.320312 225.925781 C 287.761719 224.484375 289.714844 223.671875 291.753906 223.671875 L 305.9375 223.671875 C 307.976562 223.671875 309.929688 224.484375 311.371094 225.925781 C 312.8125 227.363281 313.621094 229.320312 313.621094 231.355469 L 313.621094 246.226562 L 284.070312 246.226562 " clip-rule="nonzero"/></clipPath><clipPath id="facb87a1c2"><path d="M 400.148438 206 L 430.640625 206 L 430.640625 246.828125 L 400.148438 246.828125 Z M 400.148438 206 " clip-rule="nonzero"/></clipPath><clipPath id="571daa3a60"><path d="M 400.75 246.226562 L 400.75 213.847656 C 400.75 209.605469 404.191406 206.164062 408.433594 206.164062 L 422.617188 206.164062 C 426.863281 206.164062 430.300781 209.605469 430.300781 213.847656 L 430.300781 246.226562 L 400.75 246.226562 " clip-rule="nonzero"/></clipPath><clipPath id="a1a7b6f095"><path d="M 517.042969 226.5 L 547 226.5 L 547 246.828125 L 517.042969 246.828125 Z M 517.042969 226.5 " clip-rule="nonzero"/></clipPath><clipPath id="31622205e1"><path d="M 517.433594 246.226562 L 517.433594 234.550781 C 517.433594 230.308594 520.871094 226.867188 525.117188 226.867188 L 539.300781 226.867188 C 543.542969 226.867188 546.984375 230.308594 546.984375 234.550781 L 546.984375 246.226562 L 517.433594 246.226562 " clip-rule="nonzero"/></clipPath><clipPath id="68412b0f37"><path d="M 81.414062 50.070312 L 111.910156 50.070312 L 111.910156 246.828125 L 81.414062 246.828125 Z M 81.414062 50.070312 " clip-rule="nonzero"/></clipPath><clipPath id="90be877023"><path d="M 81.710938 246.226562 L 81.710938 57.753906 C 81.710938 53.511719 85.148438 50.070312 89.394531 50.070312 L 103.578125 50.070312 C 107.820312 50.070312 111.261719 53.511719 111.261719 57.753906 L 111.261719 246.226562 L 81.710938 246.226562 " clip-rule="nonzero"/></clipPath><clipPath id="3a5a30ae2c"><path d="M 198.308594 201.085938 L 228 201.085938 L 228 246.828125 L 198.308594 246.828125 Z M 198.308594 201.085938 " clip-rule="nonzero"/></clipPath><clipPath id="1aa60ea1c8"><path d="M 198.390625 246.226562 L 198.390625 209.078125 C 198.390625 207.039062 199.199219 205.085938 200.640625 203.644531 C 202.082031 202.203125 204.035156 201.394531 206.074219 201.394531 L 220.257812 201.394531 C 222.296875 201.394531 224.25 202.203125 225.691406 203.644531 C 227.132812 205.085938 227.941406 207.039062 227.941406 209.078125 L 227.941406 246.226562 L 198.390625 246.226562 " clip-rule="nonzero"/></clipPath><clipPath id="9803813a9c"><path d="M 315 215.609375 L 344.96875 215.609375 L 344.96875 246.828125 L 315 246.828125 Z M 315 215.609375 " clip-rule="nonzero"/></clipPath><clipPath id="8b57380598"><path d="M 315.074219 246.226562 L 315.074219 223.300781 C 315.074219 221.265625 315.882812 219.308594 317.324219 217.871094 C 318.765625 216.429688 320.71875 215.621094 322.753906 215.621094 L 336.941406 215.621094 C 338.976562 215.621094 340.933594 216.429688 342.375 217.871094 C 343.8125 219.308594 344.625 221.265625 344.625 223.300781 L 344.625 246.226562 L 315.074219 246.226562 " clip-rule="nonzero"/></clipPath><clipPath id="aaa96dfd9f"><path d="M 431.367188 217.058594 L 461.863281 217.058594 L 461.863281 246.828125 L 431.367188 246.828125 Z M 431.367188 217.058594 " clip-rule="nonzero"/></clipPath><clipPath id="fb4cfaf7fa"><path d="M 431.753906 246.226562 L 431.753906 225.066406 C 431.753906 220.820312 435.195312 217.382812 439.4375 217.382812 L 453.621094 217.382812 C 457.867188 217.382812 461.304688 220.820312 461.304688 225.066406 L 461.304688 246.226562 L 431.753906 246.226562 " clip-rule="nonzero"/></clipPath><clipPath id="948ead14e1"><path d="M 548.261719 225.046875 L 578 225.046875 L 578 246.828125 L 548.261719 246.828125 Z M 548.261719 225.046875 " clip-rule="nonzero"/></clipPath><clipPath id="b00fb77a21"><path d="M 548.433594 246.226562 L 548.433594 232.9375 C 548.433594 228.695312 551.875 225.253906 556.117188 225.253906 L 570.304688 225.253906 C 574.546875 225.253906 577.988281 228.695312 577.988281 232.9375 L 577.988281 246.226562 L 548.433594 246.226562 " clip-rule="nonzero"/></clipPath></defs><g clip-path="url(#5622ee6fd5)"><g clip-path="url(#2364a52c0e)"><path fill="#000000" d="M 19.703125 50.070312 L 578.027344 50.070312 L 578.027344 246.101562 L 19.703125 246.101562 Z M 19.703125 50.070312 " fill-opacity="1" fill-rule="nonzero"/></g></g><g clip-path="url(#331ae0ba63)"><g clip-path="url(#1727e34427)"><path fill="#000000" d="M 19.703125 50.070312 L 578.027344 50.070312 L 578.027344 246.101562 L 19.703125 246.101562 Z M 19.703125 50.070312 " fill-opacity="1" fill-rule="nonzero"/></g></g><g clip-path="url(#72b903e7d2)"><g clip-path="url(#819fbc369b)"><path fill="#000000" d="M 19.703125 50.070312 L 578.027344 50.070312 L 578.027344 246.101562 L 19.703125 246.101562 Z M 19.703125 50.070312 " fill-opacity="1" fill-rule="nonzero"/></g></g><g clip-path="url(#24e523bd4e)"><g clip-path="url(#3cf72cda52)"><path fill="#000000" d="M 19.703125 50.070312 L 578.027344 50.070312 L 578.027344 246.101562 L 19.703125 246.101562 Z M 19.703125 50.070312 " fill-opacity="1" fill-rule="nonzero"/></g></g><g clip-path="url(#9c9ee9eed5)"><g clip-path="url(#45b7d24532)"><path fill="#000000" d="M 19.703125 50.070312 L 578.027344 50.070312 L 578.027344 246.101562 L 19.703125 246.101562 Z M 19.703125 50.070312 " fill-opacity="1" fill-rule="nonzero"/></g></g><g clip-path="url(#a2e610c6fe)"><g clip-path="url(#69121ea29d)"><path fill="#193d29" d="M 19.703125 50.070312 L 578.027344 50.070312 L 578.027344 246.101562 L 19.703125 246.101562 Z M 19.703125 50.070312 " fill-opacity="1" fill-rule="nonzero"/></g></g><g clip-path="url(#1a060f5480)"><g clip-path="url(#7178d0fef0)"><path fill="#193d29" d="M 19.703125 50.070312 L 578.027344 50.070312 L 578.027344 246.101562 L 19.703125 246.101562 Z M 19.703125 50.070312 " fill-opacity="1" fill-rule="nonzero"/></g></g><g clip-path="url(#5b74f63b13)"><g clip-path="url(#1a31f6f432)"><path fill="#193d29" d="M 19.703125 50.070312 L 578.027344 50.070312 L 578.027344 246.101562 L 19.703125 246.101562 Z M 19.703125 50.070312 " fill-opacity="1" fill-rule="nonzero"/></g></g><g clip-path="url(#facb87a1c2)"><g clip-path="url(#571daa3a60)"><path fill="#193d29" d="M 19.703125 50.070312 L 578.027344 50.070312 L 578.027344 246.101562 L 19.703125 246.101562 Z M 19.703125 50.070312 " fill-opacity="1" fill-rule="nonzero"/></g></g><g clip-path="url(#a1a7b6f095)"><g clip-path="url(#31622205e1)"><path fill="#193d29" d="M 19.703125 50.070312 L 578.027344 50.070312 L 578.027344 246.101562 L 19.703125 246.101562 Z M 19.703125 50.070312 " fill-opacity="1" fill-rule="nonzero"/></g></g><g clip-path="url(#68412b0f37)"><g clip-path="url(#90be877023)"><path fill="#9bbba5" d="M 19.703125 50.070312 L 578.027344 50.070312 L 578.027344 246.101562 L 19.703125 246.101562 Z M 19.703125 50.070312 " fill-opacity="1" fill-rule="nonzero"/></g></g><g clip-path="url(#3a5a30ae2c)"><g clip-path="url(#1aa60ea1c8)"><path fill="#9bbba5" d="M 19.703125 50.070312 L 578.027344 50.070312 L 578.027344 246.101562 L 19.703125 246.101562 Z M 19.703125 50.070312 " fill-opacity="1" fill-rule="nonzero"/></g></g><g clip-path="url(#9803813a9c)"><g clip-path="url(#8b57380598)"><path fill="#9bbba5" d="M 19.703125 50.070312 L 578.027344 50.070312 L 578.027344 246.101562 L 19.703125 246.101562 Z M 19.703125 50.070312 " fill-opacity="1" fill-rule="nonzero"/></g></g><g clip-path="url(#aaa96dfd9f)"><g clip-path="url(#fb4cfaf7fa)"><path fill="#9bbba5" d="M 19.703125 50.070312 L 578.027344 50.070312 L 578.027344 246.101562 L 19.703125 246.101562 Z M 19.703125 50.070312 " fill-opacity="1" fill-rule="nonzero"/></g></g><g clip-path="url(#948ead14e1)"><g clip-path="url(#b00fb77a21)"><path fill="#9bbba5" d="M 19.703125 50.070312 L 578.027344 50.070312 L 578.027344 246.101562 L 19.703125 246.101562 Z M 19.703125 50.070312 " fill-opacity="1" fill-rule="nonzero"/></g></g></svg>