<svg xmlns="http://www.w3.org/2000/svg" xmlns:xlink="http://www.w3.org/1999/xlink" width="500" zoomAndPan="magnify" viewBox="0 0 375 374.999991" height="500" preserveAspectRatio="xMidYMid meet" version="1.0"><defs><clipPath id="3664388b2f"><path d="M 1 1 L 373.5 1 L 373.5 374 L 1 374 Z M 1 1 " clip-rule="nonzero"/></clipPath><clipPath id="2ad5eb2588"><path d="M 96.6875 143.683594 L 276.6875 143.683594 L 276.6875 256.183594 L 96.6875 256.183594 Z M 96.6875 143.683594 " clip-rule="nonzero"/></clipPath></defs><g clip-path="url(#3664388b2f)"><path fill="#193d2a" d="M 69.355469 176.25 C 64.484375 171.636719 60.332031 166.453125 56.894531 160.691406 C 53.460938 154.933594 50.875 148.8125 49.136719 142.335938 C 47.367188 135.863281 46.316406 129.277344 45.984375 122.574219 C 45.65625 115.871094 46.050781 109.210938 47.175781 102.597656 C 48.300781 95.96875 50.078125 89.523438 52.503906 83.257812 C 53.570312 80.125 55.183594 77.132812 56.566406 74.058594 C 57.347656 72.585938 58.132812 71.144531 59.042969 69.6875 L 60.296875 67.492188 C 60.71875 66.789062 61.21875 66.097656 61.675781 65.410156 L 64.496094 61.242188 L 67.628906 57.277344 L 69.199219 55.300781 L 70.859375 53.421875 L 74.214844 49.660156 C 76.609375 47.339844 78.914062 44.847656 81.46875 42.71875 C 82.722656 41.621094 83.960938 40.476562 85.261719 39.425781 L 89.210938 36.292969 C 110.589844 20.214844 136.171875 10.25 162.363281 5.21875 C 175.515625 2.597656 188.800781 1.332031 202.214844 1.414062 C 215.625 1.492188 228.894531 2.925781 242.015625 5.703125 C 255.144531 8.59375 267.683594 13.117188 279.632812 19.273438 C 282.640625 20.730469 285.476562 22.503906 288.394531 24.132812 L 292.625 26.8125 C 294.050781 27.675781 295.429688 28.613281 296.792969 29.601562 C 302.277344 33.394531 307.503906 37.515625 312.46875 41.964844 C 317.429688 46.410156 322.128906 51.109375 326.574219 56.070312 C 330.980469 61.070312 335.109375 66.296875 338.957031 71.742188 C 346.710938 82.671875 353.238281 94.296875 358.535156 106.609375 C 361.183594 112.71875 363.359375 119.019531 365.382812 125.414062 C 367.40625 131.804688 368.925781 138.246094 370.085938 144.78125 C 371.363281 151.320312 372.25 157.914062 372.75 164.558594 C 373.078125 167.878906 373.125 171.21875 373.265625 174.539062 C 373.265625 176.203125 373.265625 177.863281 373.265625 179.523438 C 373.265625 181.183594 373.265625 182.863281 373.140625 184.523438 C 372.515625 197.882812 370.445312 211.015625 366.925781 223.921875 C 363.410156 236.828125 358.535156 249.195312 352.296875 261.027344 C 346.097656 272.886719 338.828125 284.050781 330.488281 294.515625 C 322.152344 304.984375 312.894531 314.5625 302.71875 323.253906 C 292.570312 331.988281 281.703125 339.714844 270.117188 346.433594 C 258.496094 353.128906 246.335938 358.628906 233.628906 362.933594 C 220.914062 367.214844 207.902344 370.226562 194.597656 371.972656 C 181.292969 373.714844 167.945312 374.164062 154.554688 373.308594 C 141.128906 372.503906 127.960938 370.203125 115.054688 366.402344 C 102.152344 362.605469 89.835938 357.40625 78.117188 350.804688 C 72.300781 347.449219 66.722656 343.738281 61.382812 339.667969 C 56.046875 335.597656 50.988281 331.199219 46.214844 326.476562 C 41.445312 321.757812 36.992188 316.75 32.867188 311.453125 C 28.738281 306.160156 24.964844 300.625 21.550781 294.84375 C 7.882812 271.839844 0.1875 245.027344 1.269531 218.199219 C 1.59375 211.503906 2.445312 204.878906 3.820312 198.320312 C 5.195312 191.761719 7.074219 185.351562 9.464844 179.089844 C 11.851562 172.828125 14.714844 166.792969 18.054688 160.984375 C 21.398438 155.175781 25.175781 149.664062 29.386719 144.453125 C 37.78125 133.941406 47.644531 125.058594 58.976562 117.8125 C 64.59375 114.199219 70.5 111.136719 76.6875 108.628906 C 82.878906 106.121094 89.246094 104.210938 95.796875 102.894531 L 95.796875 103.207031 C 89.316406 104.613281 83.023438 106.605469 76.917969 109.1875 C 70.8125 111.769531 65 114.894531 59.480469 118.566406 C 55.375 121.328125 51.445312 124.320312 47.691406 127.542969 C 43.9375 130.761719 40.382812 134.191406 37.027344 137.828125 C 33.675781 141.46875 30.542969 145.289062 27.636719 149.289062 C 24.730469 153.292969 22.066406 157.453125 19.644531 161.769531 C 17.226562 166.082031 15.066406 170.523438 13.164062 175.089844 C 11.261719 179.65625 9.632812 184.320312 8.277344 189.078125 C 6.921875 193.835938 5.847656 198.65625 5.054688 203.539062 C 4.261719 208.421875 3.757812 213.335938 3.539062 218.277344 C 2.742188 244.636719 10.578125 270.945312 24.105469 293.324219 C 27.492188 298.960938 31.226562 304.359375 35.300781 309.523438 C 39.375 314.683594 43.757812 319.570312 48.453125 324.175781 C 53.148438 328.78125 58.113281 333.074219 63.355469 337.046875 C 68.59375 341.023438 74.0625 344.652344 79.761719 347.9375 C 91.28125 354.371094 103.371094 359.453125 116.03125 363.171875 C 128.691406 366.894531 141.605469 369.164062 154.777344 369.984375 C 167.957031 370.882812 181.101562 370.496094 194.207031 368.824219 C 207.316406 367.15625 220.136719 364.238281 232.671875 360.066406 C 238.925781 357.945312 245.066406 355.535156 251.09375 352.835938 C 257.121094 350.140625 263.011719 347.164062 268.757812 343.914062 C 274.507812 340.664062 280.089844 337.152344 285.507812 333.378906 C 290.925781 329.605469 296.15625 325.585938 301.199219 321.320312 C 306.238281 317.054688 311.070312 312.5625 315.691406 307.84375 C 320.308594 303.125 324.699219 298.203125 328.855469 293.074219 C 333.011719 287.941406 336.921875 282.628906 340.578125 277.132812 C 344.238281 271.636719 347.632812 265.980469 350.757812 260.164062 C 357.082031 248.488281 362.035156 236.257812 365.625 223.476562 C 369.214844 210.695312 371.347656 197.671875 372.027344 184.414062 C 372.550781 171.132812 371.582031 157.960938 369.121094 144.898438 C 366.660156 131.835938 362.769531 119.210938 357.453125 107.03125 C 352.246094 94.816406 345.75 83.332031 337.96875 72.574219 C 330.1875 61.8125 321.3125 52.050781 311.339844 43.28125 C 306.363281 38.9375 301.140625 34.914062 295.667969 31.214844 C 294.316406 30.277344 292.9375 29.367188 291.527344 28.519531 L 287.3125 25.917969 C 284.429688 24.351562 281.605469 22.628906 278.613281 21.21875 C 266.78125 15.304688 254.394531 10.980469 241.449219 8.242188 C 215.667969 2.601562 188.773438 3.085938 162.878906 7.929688 C 136.984375 12.773438 111.71875 22.457031 90.609375 38.253906 L 86.703125 41.277344 C 85.417969 42.3125 84.214844 43.421875 82.960938 44.410156 C 80.417969 46.496094 78.257812 48.910156 75.796875 51.164062 L 72.472656 54.816406 L 70.8125 56.632812 L 69.246094 58.5625 L 66.109375 62.417969 L 63.398438 66.554688 C 62.945312 67.226562 62.441406 67.886719 62.019531 68.589844 L 60.734375 70.707031 C 59.917969 72.132812 59.058594 73.527344 58.273438 74.96875 C 56.894531 77.945312 55.28125 80.828125 54.199219 83.933594 C 51.753906 90.058594 49.945312 96.371094 48.773438 102.863281 C 47.597656 109.363281 47.121094 115.917969 47.347656 122.523438 C 47.570312 129.125 48.492188 135.632812 50.105469 142.039062 C 51.710938 148.488281 54.167969 154.597656 57.46875 160.367188 C 60.769531 166.136719 64.792969 171.347656 69.542969 175.996094 Z M 69.355469 176.25 " fill-opacity="1" fill-rule="nonzero"/></g><g clip-path="url(#2ad5eb2588)"><path fill="#193d2a" d="M 107.9375 143.683594 C 101.769531 143.683594 96.6875 148.765625 96.6875 154.933594 L 96.6875 237.433594 C 96.6875 243.601562 101.769531 248.683594 107.9375 248.683594 L 119.1875 248.683594 L 119.1875 256.183594 L 141.6875 256.183594 L 141.6875 248.683594 L 231.683594 248.683594 L 231.683594 256.183594 L 254.183594 256.183594 L 254.183594 248.683594 L 265.433594 248.683594 C 271.601562 248.683594 276.683594 243.601562 276.683594 237.433594 L 276.683594 154.933594 C 276.683594 148.765625 271.601562 143.683594 265.433594 143.683594 Z M 107.9375 151.183594 L 265.433594 151.183594 C 267.554688 151.183594 269.183594 152.816406 269.183594 154.933594 L 269.183594 237.433594 C 269.183594 239.554688 267.554688 241.183594 265.433594 241.183594 L 107.9375 241.183594 C 105.816406 241.183594 104.1875 239.554688 104.1875 237.433594 L 104.1875 154.933594 C 104.1875 152.816406 105.816406 151.183594 107.9375 151.183594 Z M 126.6875 166.183594 C 120.515625 166.183594 115.4375 171.265625 115.4375 177.433594 L 115.4375 214.933594 C 115.4375 221.105469 120.515625 226.183594 126.6875 226.183594 L 130.4375 226.183594 C 136.605469 226.183594 141.6875 221.105469 141.6875 214.933594 L 141.6875 177.433594 C 141.6875 171.265625 136.605469 166.183594 130.4375 166.183594 Z M 160.4375 166.183594 C 154.265625 166.183594 149.1875 171.265625 149.1875 177.433594 L 149.1875 214.933594 C 149.1875 221.105469 154.265625 226.183594 160.4375 226.183594 L 164.1875 226.183594 C 170.355469 226.183594 175.4375 221.105469 175.4375 214.933594 L 175.4375 177.433594 C 175.4375 171.265625 170.355469 166.183594 164.1875 166.183594 Z M 209.183594 166.183594 C 203.015625 166.183594 197.9375 171.265625 197.9375 177.433594 L 197.9375 214.933594 C 197.9375 221.105469 203.015625 226.183594 209.183594 226.183594 L 212.933594 226.183594 C 219.105469 226.183594 224.183594 221.105469 224.183594 214.933594 L 224.183594 177.433594 C 224.183594 171.265625 219.105469 166.183594 212.933594 166.183594 Z M 242.933594 166.183594 C 236.765625 166.183594 231.683594 171.265625 231.683594 177.433594 L 231.683594 214.933594 C 231.683594 221.105469 236.765625 226.183594 242.933594 226.183594 L 246.683594 226.183594 C 252.855469 226.183594 257.933594 221.105469 257.933594 214.933594 L 257.933594 177.433594 C 257.933594 171.265625 252.855469 166.183594 246.683594 166.183594 Z M 126.6875 173.683594 L 130.4375 173.683594 C 132.515625 173.683594 134.1875 175.355469 134.1875 177.433594 L 134.1875 214.933594 C 134.1875 217.015625 132.515625 218.683594 130.4375 218.683594 L 126.6875 218.683594 C 124.605469 218.683594 122.9375 217.015625 122.9375 214.933594 L 122.9375 177.433594 C 122.9375 175.355469 124.605469 173.683594 126.6875 173.683594 Z M 160.4375 173.683594 L 164.1875 173.683594 C 166.265625 173.683594 167.9375 175.355469 167.9375 177.433594 L 167.9375 214.933594 C 167.9375 217.015625 166.265625 218.683594 164.1875 218.683594 L 160.4375 218.683594 C 158.355469 218.683594 156.6875 217.015625 156.6875 214.933594 L 156.6875 177.433594 C 156.6875 175.355469 158.355469 173.683594 160.4375 173.683594 Z M 209.183594 173.683594 L 212.933594 173.683594 C 215.015625 173.683594 216.683594 175.355469 216.683594 177.433594 L 216.683594 214.933594 C 216.683594 217.015625 215.015625 218.683594 212.933594 218.683594 L 209.183594 218.683594 C 207.105469 218.683594 205.4375 217.015625 205.4375 214.933594 L 205.4375 177.433594 C 205.4375 175.355469 207.105469 173.683594 209.183594 173.683594 Z M 242.933594 173.683594 L 246.683594 173.683594 C 248.765625 173.683594 250.433594 175.355469 250.433594 177.433594 L 250.433594 214.933594 C 250.433594 217.015625 248.765625 218.683594 246.683594 218.683594 L 242.933594 218.683594 C 240.855469 218.683594 239.183594 217.015625 239.183594 214.933594 L 239.183594 177.433594 C 239.183594 175.355469 240.855469 173.683594 242.933594 173.683594 Z M 182.9375 177.433594 L 182.9375 184.933594 L 190.4375 184.933594 L 190.4375 177.433594 Z M 182.9375 207.433594 L 182.9375 214.933594 L 190.4375 214.933594 L 190.4375 207.433594 Z M 182.9375 207.433594 " fill-opacity="1" fill-rule="nonzero"/></g></svg>