<svg xmlns="http://www.w3.org/2000/svg" xmlns:xlink="http://www.w3.org/1999/xlink" width="500" zoomAndPan="magnify" viewBox="0 0 375 374.999991" height="500" preserveAspectRatio="xMidYMid meet" version="1.0"><defs><clipPath id="8e2f2998a7"><path d="M 73.449219 107.5 L 250.449219 107.5 L 250.449219 166 L 73.449219 166 Z M 73.449219 107.5 " clip-rule="nonzero"/></clipPath><clipPath id="63a545f267"><path d="M 170.105469 155.828125 L 243.089844 155.828125 L 243.089844 267.25 L 170.105469 267.25 Z M 170.105469 155.828125 " clip-rule="nonzero"/></clipPath></defs><path fill="#193d2a" d="M 304.074219 198.75 C 308.945312 203.363281 313.097656 208.546875 316.535156 214.308594 C 319.96875 220.066406 322.554688 226.1875 324.292969 232.664062 C 326.0625 239.136719 327.113281 245.722656 327.445312 252.425781 C 327.773438 259.128906 327.378906 265.789062 326.253906 272.402344 C 325.128906 279.03125 323.351562 285.476562 320.925781 291.742188 C 319.859375 294.875 318.246094 297.867188 316.863281 300.941406 C 316.082031 302.414062 315.296875 303.855469 314.386719 305.3125 L 313.132812 307.507812 C 312.710938 308.210938 312.210938 308.902344 311.753906 309.589844 L 308.933594 313.757812 L 305.800781 317.722656 L 304.230469 319.699219 L 302.570312 321.578125 L 299.214844 325.339844 C 296.820312 327.660156 294.515625 330.152344 291.960938 332.28125 C 290.707031 333.378906 289.46875 334.523438 288.167969 335.574219 L 284.21875 338.707031 C 262.839844 354.785156 237.257812 364.75 211.066406 369.78125 C 197.914062 372.402344 184.628906 373.667969 171.214844 373.585938 C 157.804688 373.507812 144.535156 372.074219 131.414062 369.296875 C 118.285156 366.40625 105.746094 361.882812 93.796875 355.726562 C 90.789062 354.269531 87.953125 352.496094 85.035156 350.867188 L 80.804688 348.1875 C 79.378906 347.324219 78 346.386719 76.636719 345.398438 C 71.152344 341.605469 65.925781 337.484375 60.960938 333.035156 C 56 328.589844 51.300781 323.890625 46.855469 318.929688 C 42.449219 313.929688 38.320312 308.703125 34.472656 303.257812 C 26.71875 292.328125 20.191406 280.703125 14.894531 268.390625 C 12.246094 262.28125 10.070312 255.980469 8.046875 249.585938 C 6.023438 243.195312 4.503906 236.753906 3.34375 230.21875 C 2.066406 223.679688 1.179688 217.085938 0.679688 210.441406 C 0.351562 207.121094 0.304688 203.78125 0.164062 200.460938 C 0.164062 198.796875 0.164062 197.136719 0.164062 195.476562 C 0.164062 193.816406 0.164062 192.136719 0.289062 190.476562 C 0.914062 177.117188 2.984375 163.984375 6.503906 151.078125 C 10.019531 138.171875 14.894531 125.804688 21.132812 113.972656 C 27.332031 102.113281 34.601562 90.949219 42.941406 80.484375 C 51.277344 70.015625 60.535156 60.4375 70.710938 51.746094 C 80.859375 43.011719 91.726562 35.285156 103.3125 28.566406 C 114.933594 21.871094 127.09375 16.371094 139.800781 12.066406 C 152.515625 7.785156 165.527344 4.773438 178.832031 3.027344 C 192.136719 1.285156 205.484375 0.835938 218.875 1.691406 C 232.300781 2.496094 245.46875 4.796875 258.375 8.597656 C 271.277344 12.394531 283.59375 17.59375 295.3125 24.195312 C 301.128906 27.550781 306.707031 31.261719 312.046875 35.332031 C 317.382812 39.402344 322.441406 43.800781 327.214844 48.523438 C 331.984375 53.242188 336.4375 58.25 340.5625 63.546875 C 344.691406 68.839844 348.464844 74.375 351.878906 80.15625 C 365.546875 103.160156 373.242188 129.972656 372.160156 156.800781 C 371.835938 163.496094 370.984375 170.121094 369.609375 176.679688 C 368.234375 183.238281 366.355469 189.648438 363.964844 195.910156 C 361.578125 202.171875 358.714844 208.207031 355.375 214.015625 C 352.03125 219.824219 348.253906 225.335938 344.042969 230.546875 C 335.648438 241.058594 325.785156 249.941406 314.453125 257.1875 C 308.835938 260.800781 302.929688 263.863281 296.742188 266.371094 C 290.550781 268.878906 284.183594 270.789062 277.632812 272.105469 L 277.632812 271.792969 C 284.113281 270.386719 290.40625 268.394531 296.511719 265.8125 C 302.617188 263.230469 308.429688 260.105469 313.949219 256.433594 C 318.054688 253.671875 321.984375 250.679688 325.738281 247.457031 C 329.492188 244.238281 333.046875 240.808594 336.402344 237.171875 C 339.753906 233.53125 342.886719 229.710938 345.792969 225.710938 C 348.699219 221.707031 351.363281 217.546875 353.785156 213.230469 C 356.203125 208.917969 358.363281 204.476562 360.265625 199.910156 C 362.167969 195.34375 363.796875 190.679688 365.152344 185.921875 C 366.507812 181.164062 367.582031 176.34375 368.375 171.460938 C 369.167969 166.578125 369.671875 161.664062 369.890625 156.722656 C 370.6875 130.363281 362.851562 104.054688 349.324219 81.675781 C 345.9375 76.039062 342.203125 70.640625 338.128906 65.476562 C 334.054688 60.316406 329.671875 55.429688 324.976562 50.824219 C 320.28125 46.21875 315.316406 41.925781 310.074219 37.953125 C 304.835938 33.976562 299.367188 30.347656 293.667969 27.0625 C 282.148438 20.628906 270.058594 15.546875 257.398438 11.828125 C 244.738281 8.105469 231.824219 5.835938 218.652344 5.015625 C 205.472656 4.117188 192.328125 4.503906 179.222656 6.175781 C 166.113281 7.84375 153.292969 10.761719 140.757812 14.933594 C 134.503906 17.054688 128.363281 19.464844 122.335938 22.164062 C 116.308594 24.859375 110.417969 27.835938 104.671875 31.085938 C 98.921875 34.335938 93.339844 37.847656 87.921875 41.621094 C 82.503906 45.394531 77.273438 49.414062 72.230469 53.679688 C 67.191406 57.945312 62.359375 62.4375 57.738281 67.15625 C 53.121094 71.875 48.730469 76.796875 44.574219 81.925781 C 40.417969 87.058594 36.507812 92.371094 32.851562 97.867188 C 29.191406 103.363281 25.796875 109.019531 22.671875 114.835938 C 16.347656 126.511719 11.394531 138.742188 7.804688 151.523438 C 4.214844 164.304688 2.082031 177.328125 1.402344 190.585938 C 0.878906 203.867188 1.847656 217.039062 4.308594 230.101562 C 6.769531 243.164062 10.660156 255.789062 15.976562 267.96875 C 21.183594 280.183594 27.679688 291.667969 35.460938 302.425781 C 43.242188 313.1875 52.117188 322.949219 62.089844 331.71875 C 67.066406 336.0625 72.289062 340.085938 77.761719 343.785156 C 79.113281 344.722656 80.492188 345.632812 81.902344 346.480469 L 86.117188 349.082031 C 89 350.648438 91.824219 352.371094 94.816406 353.78125 C 106.648438 359.695312 119.035156 364.019531 131.980469 366.757812 C 157.761719 372.398438 184.65625 371.914062 210.550781 367.070312 C 236.445312 362.226562 261.710938 352.542969 282.820312 336.746094 L 286.726562 333.722656 C 288.011719 332.6875 289.214844 331.578125 290.46875 330.589844 C 293.011719 328.503906 295.171875 326.089844 297.632812 323.835938 L 300.957031 320.183594 L 302.617188 318.367188 L 304.183594 316.4375 L 307.320312 312.582031 L 310.03125 308.445312 C 310.484375 307.773438 310.988281 307.113281 311.410156 306.410156 L 312.695312 304.292969 C 313.511719 302.867188 314.371094 301.472656 315.15625 300.03125 C 316.535156 297.054688 318.148438 294.171875 319.230469 291.066406 C 321.675781 284.941406 323.484375 278.628906 324.65625 272.136719 C 325.832031 265.636719 326.308594 259.082031 326.082031 252.476562 C 325.859375 245.875 324.9375 239.367188 323.324219 232.960938 C 321.71875 226.511719 319.261719 220.402344 315.960938 214.632812 C 312.660156 208.863281 308.636719 203.652344 303.886719 199.003906 Z M 304.074219 198.75 " fill-opacity="1" fill-rule="nonzero"/><path fill="#193d2a" d="M 105.941406 144.734375 C 108.714844 144.265625 110.949219 142.335938 111.773438 139.695312 C 112.085938 138.695312 112.242188 137.648438 112.242188 136.582031 C 112.242188 134.246094 111.472656 131.996094 110.070312 130.246094 C 108.964844 128.867188 107.285156 128.074219 105.460938 128.074219 L 99.402344 128.074219 L 99.402344 144.835938 L 104.703125 144.835938 C 105.117188 144.835938 105.535156 144.804688 105.941406 144.734375 " fill-opacity="1" fill-rule="nonzero"/><path fill="#193d2a" d="M 130.003906 145.371094 C 134.222656 145.371094 137.660156 141.371094 137.660156 136.457031 C 137.660156 131.542969 134.222656 127.542969 130.003906 127.542969 C 125.78125 127.542969 122.34375 131.542969 122.34375 136.457031 C 122.34375 141.371094 125.78125 145.371094 130.003906 145.371094 " fill-opacity="1" fill-rule="nonzero"/><g clip-path="url(#8e2f2998a7)"><path fill="#193d2a" d="M 96.226562 146.425781 L 96.226562 126.488281 C 96.226562 125.609375 96.9375 124.898438 97.8125 124.898438 L 105.460938 124.898438 C 108.253906 124.898438 110.839844 126.125 112.550781 128.261719 C 114.402344 130.574219 115.417969 133.527344 115.417969 136.582031 C 115.417969 137.96875 115.214844 139.335938 114.808594 140.640625 C 113.625 144.429688 110.429688 147.199219 106.46875 147.867188 C 105.890625 147.964844 105.296875 148.015625 104.703125 148.015625 L 97.8125 148.015625 C 96.9375 148.015625 96.226562 147.304688 96.226562 146.425781 Z M 130 124.367188 C 135.976562 124.367188 140.835938 129.789062 140.835938 136.457031 C 140.835938 143.125 135.976562 148.546875 130 148.546875 C 124.027344 148.546875 119.167969 143.125 119.167969 136.457031 C 119.167969 129.789062 124.027344 124.367188 130 124.367188 Z M 145.3125 126.488281 C 145.3125 125.804688 145.75 125.199219 146.398438 124.980469 C 147.046875 124.765625 147.761719 124.988281 148.171875 125.535156 L 160.265625 141.664062 L 160.265625 126.488281 C 160.265625 125.609375 160.976562 124.898438 161.855469 124.898438 C 162.730469 124.898438 163.445312 125.609375 163.445312 126.488281 L 163.445312 146.425781 C 163.445312 147.109375 163.003906 147.714844 162.359375 147.933594 C 162.191406 147.988281 162.023438 148.015625 161.855469 148.015625 C 161.363281 148.015625 160.890625 147.785156 160.585938 147.378906 L 148.492188 131.253906 L 148.492188 146.425781 C 148.492188 147.304688 147.777344 148.015625 146.902344 148.015625 C 146.027344 148.015625 145.3125 147.304688 145.3125 146.425781 Z M 168.433594 146.148438 L 176.5 125.601562 C 176.5 125.597656 176.503906 125.597656 176.503906 125.59375 C 176.53125 125.523438 176.570312 125.464844 176.605469 125.398438 C 176.621094 125.371094 176.632812 125.339844 176.648438 125.3125 C 176.789062 125.101562 176.984375 124.925781 177.21875 124.796875 C 177.261719 124.773438 177.304688 124.746094 177.351562 124.726562 C 177.355469 124.722656 177.359375 124.722656 177.363281 124.71875 C 177.410156 124.699219 177.460938 124.691406 177.507812 124.675781 C 177.554688 124.660156 177.601562 124.640625 177.648438 124.632812 C 177.707031 124.621094 177.761719 124.617188 177.820312 124.609375 C 177.867188 124.605469 177.910156 124.597656 177.957031 124.597656 C 178.011719 124.597656 178.066406 124.605469 178.121094 124.609375 C 178.171875 124.613281 178.21875 124.613281 178.269531 124.625 C 178.328125 124.632812 178.378906 124.652344 178.4375 124.671875 C 178.476562 124.683594 178.519531 124.691406 178.558594 124.703125 C 178.5625 124.707031 178.566406 124.710938 178.570312 124.710938 C 178.632812 124.738281 178.6875 124.769531 178.746094 124.800781 C 178.78125 124.820312 178.816406 124.835938 178.847656 124.855469 C 178.859375 124.863281 178.871094 124.875 178.882812 124.878906 C 179.042969 124.992188 179.179688 125.128906 179.285156 125.285156 C 179.296875 125.296875 179.304688 125.316406 179.3125 125.332031 C 179.359375 125.40625 179.402344 125.480469 179.4375 125.5625 C 179.4375 125.5625 179.441406 125.566406 179.441406 125.570312 L 185.039062 138.878906 L 188.078125 146.113281 C 188.417969 146.925781 188.039062 147.855469 187.230469 148.195312 C 187.03125 148.277344 186.820312 148.320312 186.617188 148.320312 C 185.996094 148.320312 185.40625 147.953125 185.152344 147.347656 L 182.519531 141.085938 L 173.835938 141.085938 L 171.390625 147.3125 C 171.144531 147.9375 170.546875 148.320312 169.910156 148.320312 C 169.71875 148.320312 169.523438 148.285156 169.332031 148.210938 C 168.515625 147.886719 168.113281 146.964844 168.433594 146.148438 Z M 190.34375 124.589844 L 205.558594 124.589844 C 206.433594 124.589844 207.148438 125.300781 207.148438 126.175781 C 207.148438 127.054688 206.433594 127.765625 205.558594 127.765625 L 199.425781 127.765625 L 199.425781 146.738281 C 199.425781 147.613281 198.714844 148.324219 197.835938 148.324219 C 196.960938 148.324219 196.25 147.613281 196.25 146.738281 L 196.25 127.765625 L 190.34375 127.765625 C 189.464844 127.765625 188.753906 127.054688 188.753906 126.175781 C 188.753906 125.300781 189.464844 124.589844 190.34375 124.589844 Z M 210.695312 126.488281 C 210.695312 125.609375 211.40625 124.898438 212.28125 124.898438 L 225.265625 124.898438 C 226.140625 124.898438 226.855469 125.609375 226.855469 126.488281 C 226.855469 127.367188 226.140625 128.078125 225.265625 128.078125 L 213.871094 128.078125 L 213.871094 134.621094 L 224.265625 134.621094 C 225.144531 134.621094 225.855469 135.332031 225.855469 136.210938 C 225.855469 137.085938 225.144531 137.796875 224.265625 137.796875 L 213.871094 137.796875 L 213.871094 144.839844 L 225.265625 144.839844 C 226.140625 144.839844 226.855469 145.550781 226.855469 146.425781 C 226.855469 147.304688 226.140625 148.015625 225.265625 148.015625 L 212.28125 148.015625 C 211.40625 148.015625 210.695312 147.304688 210.695312 146.425781 Z M 189.296875 165.089844 L 189.296875 164.039062 C 189.296875 155.089844 194.484375 153.753906 197.574219 153.753906 C 202.777344 153.753906 205.878906 157.515625 205.878906 163.816406 L 205.878906 165.089844 L 223.019531 165.089844 C 238.089844 165.089844 250.351562 152.828125 250.351562 137.757812 L 250.351562 134.832031 C 250.351562 119.761719 238.089844 107.5 223.019531 107.5 L 100.882812 107.5 C 85.8125 107.5 73.550781 119.761719 73.550781 134.832031 L 73.550781 137.757812 C 73.550781 152.828125 85.8125 165.089844 100.882812 165.089844 L 189.296875 165.089844 " fill-opacity="1" fill-rule="nonzero"/></g><path fill="#193d2a" d="M 181.183594 137.90625 L 178.027344 130.402344 L 175.082031 137.90625 L 181.183594 137.90625 " fill-opacity="1" fill-rule="nonzero"/><g clip-path="url(#63a545f267)"><path fill="#193d2a" d="M 238.046875 196.898438 C 236.042969 196.820312 234.414062 197.363281 233.277344 198.460938 C 232.199219 199.496094 231.632812 200.976562 231.632812 202.734375 C 231.632812 203.027344 231.394531 203.265625 231.101562 203.265625 C 230.8125 203.265625 230.574219 203.027344 230.574219 202.734375 L 230.574219 198.667969 C 230.574219 195.195312 228.042969 192.597656 224.417969 192.351562 C 223.117188 192.257812 220.949219 192.660156 219.476562 194.03125 C 218.644531 194.808594 218.226562 195.757812 218.226562 196.851562 L 218.226562 198.863281 C 218.226562 199.15625 217.988281 199.394531 217.699219 199.394531 C 217.40625 199.394531 217.167969 199.15625 217.167969 198.863281 L 217.167969 195.730469 C 217.167969 193.179688 215.757812 189.988281 211.785156 189.382812 C 210.101562 189.125 208.601562 189.558594 207.347656 190.636719 C 205.789062 191.976562 204.820312 194.191406 204.820312 196.417969 C 204.820312 196.710938 204.585938 196.949219 204.292969 196.949219 C 204 196.949219 203.761719 196.710938 203.761719 196.417969 L 203.761719 163.816406 C 203.761719 158.691406 201.566406 155.871094 197.574219 155.871094 C 193.488281 155.871094 191.417969 158.617188 191.417969 164.039062 L 191.417969 219.738281 C 191.417969 219.925781 191.316406 220.097656 191.15625 220.191406 C 191.097656 220.226562 191.03125 220.25 190.886719 220.265625 C 190.628906 220.265625 190.539062 220.226562 190.53125 220.226562 C 190.46875 220.128906 190.386719 220.042969 190.292969 219.972656 C 189.226562 219.160156 185.457031 215.59375 181.769531 203.808594 C 181.121094 201.738281 179.191406 196.925781 175.304688 196.925781 C 174.828125 196.925781 174.34375 197 173.855469 197.152344 C 170.503906 198.179688 169.8125 200.984375 170.285156 203.265625 C 170.292969 203.300781 171.09375 207.132812 171.917969 210.550781 C 172.417969 212.625 172.839844 214.511719 173.25 216.335938 C 175.648438 227.046875 176.96875 232.945312 188.527344 248.816406 C 189.789062 250.550781 192 254.324219 192.617188 260.082031 C 192.84375 262.175781 192.964844 265.453125 192.988281 266.125 C 192.984375 266.148438 192.984375 266.171875 192.984375 266.191406 C 192.984375 266.777344 193.457031 267.25 194.042969 267.25 L 228.121094 267.25 C 228.40625 267.25 228.675781 267.125 228.871094 266.925781 C 229.074219 266.726562 229.183594 266.441406 229.183594 266.160156 C 229.175781 264.574219 229.191406 263.382812 229.21875 262.972656 L 229.265625 262.328125 C 229.558594 258.089844 229.863281 253.703125 232.421875 250.101562 C 235.347656 245.976562 239.359375 240.328125 241.863281 226.585938 C 242.640625 222.320312 243.070312 212.539062 243.070312 207.410156 L 243.070312 203.027344 C 243.070312 199.417969 241.097656 197.011719 238.046875 196.898438 " fill-opacity="1" fill-rule="nonzero"/></g></svg>