<svg xmlns="http://www.w3.org/2000/svg" xmlns:xlink="http://www.w3.org/1999/xlink" width="500" zoomAndPan="magnify" viewBox="0 0 375 374.999991" height="500" preserveAspectRatio="xMidYMid meet" version="1.0"><defs><clipPath id="cab72de480"><path d="M 1 1 L 373.5 1 L 373.5 374 L 1 374 Z M 1 1 " clip-rule="nonzero"/></clipPath><clipPath id="4b0b3a45c8"><path d="M 127.097656 107.253906 L 310.847656 107.253906 L 310.847656 267.753906 L 127.097656 267.753906 Z M 127.097656 107.253906 " clip-rule="nonzero"/></clipPath></defs><g clip-path="url(#cab72de480)"><path fill="#193d2a" d="M 69.355469 176.25 C 64.484375 171.636719 60.332031 166.453125 56.894531 160.691406 C 53.460938 154.933594 50.875 148.8125 49.136719 142.335938 C 47.367188 135.863281 46.316406 129.277344 45.984375 122.574219 C 45.65625 115.871094 46.050781 109.210938 47.175781 102.597656 C 48.300781 95.96875 50.078125 89.523438 52.503906 83.257812 C 53.570312 80.125 55.183594 77.132812 56.566406 74.058594 C 57.347656 72.585938 58.132812 71.144531 59.042969 69.6875 L 60.296875 67.492188 C 60.71875 66.789062 61.21875 66.097656 61.675781 65.410156 L 64.496094 61.242188 L 67.628906 57.277344 L 69.199219 55.300781 L 70.859375 53.421875 L 74.214844 49.660156 C 76.609375 47.339844 78.914062 44.847656 81.46875 42.71875 C 82.722656 41.621094 83.960938 40.476562 85.261719 39.425781 L 89.210938 36.292969 C 110.589844 20.214844 136.171875 10.25 162.363281 5.21875 C 175.515625 2.597656 188.800781 1.332031 202.214844 1.414062 C 215.625 1.492188 228.894531 2.925781 242.015625 5.703125 C 255.144531 8.59375 267.683594 13.117188 279.632812 19.273438 C 282.640625 20.730469 285.476562 22.503906 288.394531 24.132812 L 292.625 26.8125 C 294.050781 27.675781 295.429688 28.613281 296.792969 29.601562 C 302.277344 33.394531 307.503906 37.515625 312.46875 41.964844 C 317.429688 46.410156 322.128906 51.109375 326.574219 56.070312 C 330.980469 61.070312 335.109375 66.296875 338.957031 71.742188 C 346.710938 82.671875 353.238281 94.296875 358.535156 106.609375 C 361.183594 112.71875 363.359375 119.019531 365.382812 125.414062 C 367.40625 131.804688 368.925781 138.246094 370.085938 144.78125 C 371.363281 151.320312 372.25 157.914062 372.75 164.558594 C 373.078125 167.878906 373.125 171.21875 373.265625 174.539062 C 373.265625 176.203125 373.265625 177.863281 373.265625 179.523438 C 373.265625 181.183594 373.265625 182.863281 373.140625 184.523438 C 372.515625 197.882812 370.445312 211.015625 366.925781 223.921875 C 363.410156 236.828125 358.535156 249.195312 352.296875 261.027344 C 346.097656 272.886719 338.828125 284.050781 330.488281 294.515625 C 322.152344 304.984375 312.894531 314.5625 302.71875 323.253906 C 292.570312 331.988281 281.703125 339.714844 270.117188 346.433594 C 258.496094 353.128906 246.335938 358.628906 233.628906 362.933594 C 220.914062 367.214844 207.902344 370.226562 194.597656 371.972656 C 181.292969 373.714844 167.945312 374.164062 154.554688 373.308594 C 141.128906 372.503906 127.960938 370.203125 115.054688 366.402344 C 102.152344 362.605469 89.835938 357.40625 78.117188 350.804688 C 72.300781 347.449219 66.722656 343.738281 61.382812 339.667969 C 56.046875 335.597656 50.988281 331.199219 46.214844 326.476562 C 41.445312 321.757812 36.992188 316.75 32.867188 311.453125 C 28.738281 306.160156 24.964844 300.625 21.550781 294.84375 C 7.882812 271.839844 0.1875 245.027344 1.269531 218.199219 C 1.59375 211.503906 2.445312 204.878906 3.820312 198.320312 C 5.195312 191.761719 7.074219 185.351562 9.464844 179.089844 C 11.851562 172.828125 14.714844 166.792969 18.054688 160.984375 C 21.398438 155.175781 25.175781 149.664062 29.386719 144.453125 C 37.78125 133.941406 47.644531 125.058594 58.976562 117.8125 C 64.59375 114.199219 70.5 111.136719 76.6875 108.628906 C 82.878906 106.121094 89.246094 104.210938 95.796875 102.894531 L 95.796875 103.207031 C 89.316406 104.613281 83.023438 106.605469 76.917969 109.1875 C 70.8125 111.769531 65 114.894531 59.480469 118.566406 C 55.375 121.328125 51.445312 124.320312 47.691406 127.542969 C 43.9375 130.761719 40.382812 134.191406 37.027344 137.828125 C 33.675781 141.46875 30.542969 145.289062 27.636719 149.289062 C 24.730469 153.292969 22.066406 157.453125 19.644531 161.769531 C 17.226562 166.082031 15.066406 170.523438 13.164062 175.089844 C 11.261719 179.65625 9.632812 184.320312 8.277344 189.078125 C 6.921875 193.835938 5.847656 198.65625 5.054688 203.539062 C 4.261719 208.421875 3.757812 213.335938 3.539062 218.277344 C 2.742188 244.636719 10.578125 270.945312 24.105469 293.324219 C 27.492188 298.960938 31.226562 304.359375 35.300781 309.523438 C 39.375 314.683594 43.757812 319.570312 48.453125 324.175781 C 53.148438 328.78125 58.113281 333.074219 63.355469 337.046875 C 68.59375 341.023438 74.0625 344.652344 79.761719 347.9375 C 91.28125 354.371094 103.371094 359.453125 116.03125 363.171875 C 128.691406 366.894531 141.605469 369.164062 154.777344 369.984375 C 167.957031 370.882812 181.101562 370.496094 194.207031 368.824219 C 207.316406 367.15625 220.136719 364.238281 232.671875 360.066406 C 238.925781 357.945312 245.066406 355.535156 251.09375 352.835938 C 257.121094 350.140625 263.011719 347.164062 268.757812 343.914062 C 274.507812 340.664062 280.089844 337.152344 285.507812 333.378906 C 290.925781 329.605469 296.15625 325.585938 301.199219 321.320312 C 306.238281 317.054688 311.070312 312.5625 315.691406 307.84375 C 320.308594 303.125 324.699219 298.203125 328.855469 293.074219 C 333.011719 287.941406 336.921875 282.628906 340.578125 277.132812 C 344.238281 271.636719 347.632812 265.980469 350.757812 260.164062 C 357.082031 248.488281 362.035156 236.257812 365.625 223.476562 C 369.214844 210.695312 371.347656 197.671875 372.027344 184.414062 C 372.550781 171.132812 371.582031 157.960938 369.121094 144.898438 C 366.660156 131.835938 362.769531 119.210938 357.453125 107.03125 C 352.246094 94.816406 345.75 83.332031 337.96875 72.574219 C 330.1875 61.8125 321.3125 52.050781 311.339844 43.28125 C 306.363281 38.9375 301.140625 34.914062 295.667969 31.214844 C 294.316406 30.277344 292.9375 29.367188 291.527344 28.519531 L 287.3125 25.917969 C 284.429688 24.351562 281.605469 22.628906 278.613281 21.21875 C 266.78125 15.304688 254.394531 10.980469 241.449219 8.242188 C 215.667969 2.601562 188.773438 3.085938 162.878906 7.929688 C 136.984375 12.773438 111.71875 22.457031 90.609375 38.253906 L 86.703125 41.277344 C 85.417969 42.3125 84.214844 43.421875 82.960938 44.410156 C 80.417969 46.496094 78.257812 48.910156 75.796875 51.164062 L 72.472656 54.816406 L 70.8125 56.632812 L 69.246094 58.5625 L 66.109375 62.417969 L 63.398438 66.554688 C 62.945312 67.226562 62.441406 67.886719 62.019531 68.589844 L 60.734375 70.707031 C 59.917969 72.132812 59.058594 73.527344 58.273438 74.96875 C 56.894531 77.945312 55.28125 80.828125 54.199219 83.933594 C 51.753906 90.058594 49.945312 96.371094 48.773438 102.863281 C 47.597656 109.363281 47.121094 115.917969 47.347656 122.523438 C 47.570312 129.125 48.492188 135.632812 50.105469 142.039062 C 51.710938 148.488281 54.167969 154.597656 57.46875 160.367188 C 60.769531 166.136719 64.792969 171.347656 69.542969 175.996094 Z M 69.355469 176.25 " fill-opacity="1" fill-rule="nonzero"/></g><g clip-path="url(#4b0b3a45c8)"><path fill="#193d2a" d="M 244.359375 257.21875 L 244.359375 264.121094 C 244.359375 266.128906 242.730469 267.753906 240.71875 267.753906 L 130.839844 267.753906 C 128.832031 267.753906 127.203125 266.128906 127.203125 264.121094 L 127.203125 136.304688 C 127.203125 136.183594 127.207031 136.0625 127.21875 135.941406 C 127.226562 135.855469 127.242188 135.769531 127.257812 135.683594 C 127.265625 135.652344 127.265625 135.621094 127.273438 135.589844 C 127.292969 135.484375 127.320312 135.386719 127.351562 135.285156 C 127.355469 135.273438 127.355469 135.257812 127.359375 135.246094 C 127.390625 135.144531 127.425781 135.046875 127.464844 134.949219 C 127.472656 134.9375 127.476562 134.925781 127.480469 134.914062 C 127.519531 134.820312 127.5625 134.730469 127.605469 134.644531 C 127.617188 134.625 127.625 134.609375 127.632812 134.589844 C 127.675781 134.511719 127.722656 134.4375 127.769531 134.359375 C 127.785156 134.335938 127.800781 134.308594 127.816406 134.285156 C 127.863281 134.21875 127.910156 134.152344 127.960938 134.089844 C 127.984375 134.058594 128.003906 134.027344 128.03125 134 C 128.085938 133.933594 128.144531 133.871094 128.203125 133.808594 C 128.226562 133.785156 128.246094 133.761719 128.265625 133.738281 L 153.734375 108.320312 C 153.757812 108.296875 153.785156 108.277344 153.808594 108.253906 C 153.871094 108.195312 153.933594 108.136719 154 108.082031 C 154.027344 108.058594 154.058594 108.039062 154.089844 108.015625 C 154.152344 107.964844 154.21875 107.914062 154.285156 107.871094 C 154.308594 107.851562 154.335938 107.839844 154.359375 107.824219 C 154.4375 107.777344 154.511719 107.726562 154.589844 107.683594 C 154.609375 107.675781 154.625 107.667969 154.644531 107.660156 C 154.730469 107.613281 154.820312 107.570312 154.914062 107.53125 C 154.925781 107.527344 154.9375 107.523438 154.949219 107.519531 C 155.046875 107.480469 155.144531 107.445312 155.246094 107.414062 C 155.261719 107.410156 155.273438 107.40625 155.285156 107.402344 C 155.386719 107.375 155.488281 107.347656 155.589844 107.328125 C 155.621094 107.320312 155.652344 107.316406 155.683594 107.3125 C 155.769531 107.296875 155.855469 107.28125 155.945312 107.273438 C 156.066406 107.261719 156.1875 107.257812 156.308594 107.257812 L 240.71875 107.257812 C 242.730469 107.257812 244.359375 108.882812 244.359375 110.886719 L 244.359375 128.335938 C 245.640625 128.253906 246.933594 128.214844 248.234375 128.214844 C 282.757812 128.214844 310.746094 157.121094 310.746094 192.777344 C 310.746094 228.433594 282.757812 257.339844 248.234375 257.339844 C 246.933594 257.339844 245.640625 257.296875 244.359375 257.21875 Z M 159.4375 116.789062 L 136.761719 139.4375 L 159.4375 139.4375 Z M 248.234375 251.46875 C 279.621094 251.46875 305.0625 225.191406 305.0625 192.777344 C 305.0625 160.363281 279.621094 134.085938 248.234375 134.085938 C 216.851562 134.085938 191.40625 160.363281 191.40625 192.777344 C 191.40625 225.191406 216.851562 251.46875 248.234375 251.46875 Z M 241.484375 210.453125 C 245.925781 213.132812 248.703125 217.324219 248.703125 221.980469 C 248.703125 222.621094 248.648438 223.261719 248.542969 223.890625 L 248.324219 225.207031 L 211.976562 225.207031 L 211.753906 223.890625 C 211.652344 223.261719 211.597656 222.621094 211.597656 221.980469 C 211.597656 217.050781 214.707031 212.65625 219.582031 210.015625 C 222.480469 213.3125 226.382812 215.339844 230.730469 215.339844 C 234.882812 215.339844 238.628906 213.492188 241.484375 210.453125 Z M 230.730469 212.191406 C 223.507812 212.191406 217.566406 204.769531 217.566406 195.472656 C 217.566406 186.179688 223.507812 178.757812 230.730469 178.757812 C 237.957031 178.757812 243.898438 186.179688 243.898438 195.472656 C 243.898438 204.769531 237.957031 212.191406 230.730469 212.191406 Z M 277.796875 192.34375 C 282.238281 195.023438 285.015625 199.214844 285.015625 203.871094 C 285.015625 204.515625 284.964844 205.152344 284.859375 205.785156 L 284.640625 207.101562 L 248.289062 207.101562 L 248.070312 205.785156 C 247.964844 205.152344 247.910156 204.515625 247.910156 203.871094 C 247.910156 198.945312 251.023438 194.546875 255.894531 191.90625 C 258.792969 195.203125 262.699219 197.230469 267.046875 197.230469 C 271.199219 197.230469 274.945312 195.382812 277.796875 192.34375 Z M 267.046875 194.082031 C 259.820312 194.082031 253.878906 186.660156 253.878906 177.367188 C 253.878906 168.074219 259.820312 160.652344 267.046875 160.652344 C 274.269531 160.652344 280.210938 168.074219 280.210938 177.367188 C 280.210938 186.660156 274.269531 194.082031 267.046875 194.082031 Z M 267.046875 194.082031 " fill-opacity="1" fill-rule="nonzero"/></g></svg>