<svg xmlns="http://www.w3.org/2000/svg" xmlns:xlink="http://www.w3.org/1999/xlink" width="500" zoomAndPan="magnify" viewBox="0 0 375 374.999991" height="500" preserveAspectRatio="xMidYMid meet" version="1.0"><defs><clipPath id="08a8e2a230"><path d="M 98.074219 127 L 253 127 L 253 282.253906 L 98.074219 282.253906 Z M 98.074219 127 " clip-rule="nonzero"/></clipPath><clipPath id="2cc37671a1"><path d="M 194 105.253906 L 275.074219 105.253906 L 275.074219 186 L 194 186 Z M 194 105.253906 " clip-rule="nonzero"/></clipPath></defs><path fill="#193d2a" d="M 304.074219 198.75 C 308.945312 203.363281 313.097656 208.546875 316.535156 214.308594 C 319.96875 220.066406 322.554688 226.1875 324.292969 232.664062 C 326.0625 239.136719 327.113281 245.722656 327.445312 252.425781 C 327.773438 259.128906 327.378906 265.789062 326.253906 272.402344 C 325.128906 279.03125 323.351562 285.476562 320.925781 291.742188 C 319.859375 294.875 318.246094 297.867188 316.863281 300.941406 C 316.082031 302.414062 315.296875 303.855469 314.386719 305.3125 L 313.132812 307.507812 C 312.710938 308.210938 312.210938 308.902344 311.753906 309.589844 L 308.933594 313.757812 L 305.800781 317.722656 L 304.230469 319.699219 L 302.570312 321.578125 L 299.214844 325.339844 C 296.820312 327.660156 294.515625 330.152344 291.960938 332.28125 C 290.707031 333.378906 289.46875 334.523438 288.167969 335.574219 L 284.21875 338.707031 C 262.839844 354.785156 237.257812 364.75 211.066406 369.78125 C 197.914062 372.402344 184.628906 373.667969 171.214844 373.585938 C 157.804688 373.507812 144.535156 372.074219 131.414062 369.296875 C 118.285156 366.40625 105.746094 361.882812 93.796875 355.726562 C 90.789062 354.269531 87.953125 352.496094 85.035156 350.867188 L 80.804688 348.1875 C 79.378906 347.324219 78 346.386719 76.636719 345.398438 C 71.152344 341.605469 65.925781 337.484375 60.960938 333.035156 C 56 328.589844 51.300781 323.890625 46.855469 318.929688 C 42.449219 313.929688 38.320312 308.703125 34.472656 303.257812 C 26.71875 292.328125 20.191406 280.703125 14.894531 268.390625 C 12.246094 262.28125 10.070312 255.980469 8.046875 249.585938 C 6.023438 243.195312 4.503906 236.753906 3.34375 230.21875 C 2.066406 223.679688 1.179688 217.085938 0.679688 210.441406 C 0.351562 207.121094 0.304688 203.78125 0.164062 200.460938 C 0.164062 198.796875 0.164062 197.136719 0.164062 195.476562 C 0.164062 193.816406 0.164062 192.136719 0.289062 190.476562 C 0.914062 177.117188 2.984375 163.984375 6.503906 151.078125 C 10.019531 138.171875 14.894531 125.804688 21.132812 113.972656 C 27.332031 102.113281 34.601562 90.949219 42.941406 80.484375 C 51.277344 70.015625 60.535156 60.4375 70.710938 51.746094 C 80.859375 43.011719 91.726562 35.285156 103.3125 28.566406 C 114.933594 21.871094 127.09375 16.371094 139.800781 12.066406 C 152.515625 7.785156 165.527344 4.773438 178.832031 3.027344 C 192.136719 1.285156 205.484375 0.835938 218.875 1.691406 C 232.300781 2.496094 245.46875 4.796875 258.375 8.597656 C 271.277344 12.394531 283.59375 17.59375 295.3125 24.195312 C 301.128906 27.550781 306.707031 31.261719 312.046875 35.332031 C 317.382812 39.402344 322.441406 43.800781 327.214844 48.523438 C 331.984375 53.242188 336.4375 58.25 340.5625 63.546875 C 344.691406 68.839844 348.464844 74.375 351.878906 80.15625 C 365.546875 103.160156 373.242188 129.972656 372.160156 156.800781 C 371.835938 163.496094 370.984375 170.121094 369.609375 176.679688 C 368.234375 183.238281 366.355469 189.648438 363.964844 195.910156 C 361.578125 202.171875 358.714844 208.207031 355.375 214.015625 C 352.03125 219.824219 348.253906 225.335938 344.042969 230.546875 C 335.648438 241.058594 325.785156 249.941406 314.453125 257.1875 C 308.835938 260.800781 302.929688 263.863281 296.742188 266.371094 C 290.550781 268.878906 284.183594 270.789062 277.632812 272.105469 L 277.632812 271.792969 C 284.113281 270.386719 290.40625 268.394531 296.511719 265.8125 C 302.617188 263.230469 308.429688 260.105469 313.949219 256.433594 C 318.054688 253.671875 321.984375 250.679688 325.738281 247.457031 C 329.492188 244.238281 333.046875 240.808594 336.402344 237.171875 C 339.753906 233.53125 342.886719 229.710938 345.792969 225.710938 C 348.699219 221.707031 351.363281 217.546875 353.785156 213.230469 C 356.203125 208.917969 358.363281 204.476562 360.265625 199.910156 C 362.167969 195.34375 363.796875 190.679688 365.152344 185.921875 C 366.507812 181.164062 367.582031 176.34375 368.375 171.460938 C 369.167969 166.578125 369.671875 161.664062 369.890625 156.722656 C 370.6875 130.363281 362.851562 104.054688 349.324219 81.675781 C 345.9375 76.039062 342.203125 70.640625 338.128906 65.476562 C 334.054688 60.316406 329.671875 55.429688 324.976562 50.824219 C 320.28125 46.21875 315.316406 41.925781 310.074219 37.953125 C 304.835938 33.976562 299.367188 30.347656 293.667969 27.0625 C 282.148438 20.628906 270.058594 15.546875 257.398438 11.828125 C 244.738281 8.105469 231.824219 5.835938 218.652344 5.015625 C 205.472656 4.117188 192.328125 4.503906 179.222656 6.175781 C 166.113281 7.84375 153.292969 10.761719 140.757812 14.933594 C 134.503906 17.054688 128.363281 19.464844 122.335938 22.164062 C 116.308594 24.859375 110.417969 27.835938 104.671875 31.085938 C 98.921875 34.335938 93.339844 37.847656 87.921875 41.621094 C 82.503906 45.394531 77.273438 49.414062 72.230469 53.679688 C 67.191406 57.945312 62.359375 62.4375 57.738281 67.15625 C 53.121094 71.875 48.730469 76.796875 44.574219 81.925781 C 40.417969 87.058594 36.507812 92.371094 32.851562 97.867188 C 29.191406 103.363281 25.796875 109.019531 22.671875 114.835938 C 16.347656 126.511719 11.394531 138.742188 7.804688 151.523438 C 4.214844 164.304688 2.082031 177.328125 1.402344 190.585938 C 0.878906 203.867188 1.847656 217.039062 4.308594 230.101562 C 6.769531 243.164062 10.660156 255.789062 15.976562 267.96875 C 21.183594 280.183594 27.679688 291.667969 35.460938 302.425781 C 43.242188 313.1875 52.117188 322.949219 62.089844 331.71875 C 67.066406 336.0625 72.289062 340.085938 77.761719 343.785156 C 79.113281 344.722656 80.492188 345.632812 81.902344 346.480469 L 86.117188 349.082031 C 89 350.648438 91.824219 352.371094 94.816406 353.78125 C 106.648438 359.695312 119.035156 364.019531 131.980469 366.757812 C 157.761719 372.398438 184.65625 371.914062 210.550781 367.070312 C 236.445312 362.226562 261.710938 352.542969 282.820312 336.746094 L 286.726562 333.722656 C 288.011719 332.6875 289.214844 331.578125 290.46875 330.589844 C 293.011719 328.503906 295.171875 326.089844 297.632812 323.835938 L 300.957031 320.183594 L 302.617188 318.367188 L 304.183594 316.4375 L 307.320312 312.582031 L 310.03125 308.445312 C 310.484375 307.773438 310.988281 307.113281 311.410156 306.410156 L 312.695312 304.292969 C 313.511719 302.867188 314.371094 301.472656 315.15625 300.03125 C 316.535156 297.054688 318.148438 294.171875 319.230469 291.066406 C 321.675781 284.941406 323.484375 278.628906 324.65625 272.136719 C 325.832031 265.636719 326.308594 259.082031 326.082031 252.476562 C 325.859375 245.875 324.9375 239.367188 323.324219 232.960938 C 321.71875 226.511719 319.261719 220.402344 315.960938 214.632812 C 312.660156 208.863281 308.636719 203.652344 303.886719 199.003906 Z M 304.074219 198.75 " fill-opacity="1" fill-rule="nonzero"/><g clip-path="url(#08a8e2a230)"><path fill="#193d2a" d="M 175.34375 282.253906 C 217.945312 282.253906 252.554688 247.585938 252.554688 204.984375 C 252.554688 203.335938 251.210938 201.933594 249.5 201.933594 L 178.398438 201.933594 L 178.398438 130.828125 C 178.398438 129.121094 176.992188 127.777344 175.34375 127.777344 C 132.742188 127.777344 98.074219 162.382812 98.074219 204.984375 C 98.074219 247.585938 132.742188 282.253906 175.34375 282.253906 Z M 175.34375 282.253906 " fill-opacity="1" fill-rule="nonzero"/></g><g clip-path="url(#2cc37671a1)"><path fill="#193d2a" d="M 197.804688 105.253906 C 196.15625 105.253906 194.753906 106.597656 194.753906 108.308594 L 194.753906 182.523438 C 194.753906 184.171875 196.15625 185.578125 197.804688 185.578125 L 272.023438 185.578125 C 273.730469 185.578125 275.074219 184.171875 275.074219 182.523438 C 275.074219 139.921875 240.40625 105.253906 197.804688 105.253906 Z M 197.804688 105.253906 " fill-opacity="1" fill-rule="nonzero"/></g></svg>